<svg width="21" height="21" viewBox="0 0 21 21" fill="none" xmlns="http://www.w3.org/2000/svg">
<path d="M10.5043 5.33403C7.52307 5.33403 5.11838 7.63853 5.11838 10.4956C5.11838 13.3526 7.52307 15.6571 10.5043 15.6571C13.4856 15.6571 15.8903 13.3526 15.8903 10.4956C15.8903 7.63853 13.4856 5.33403 10.5043 5.33403ZM10.5043 13.8512C8.57776 13.8512 7.00276 12.3463 7.00276 10.4956C7.00276 8.64478 8.57307 7.13989 10.5043 7.13989C12.4356 7.13989 14.0059 8.64478 14.0059 10.4956C14.0059 12.3463 12.4309 13.8512 10.5043 13.8512ZM17.3668 5.1229C17.3668 5.79224 16.8043 6.32681 16.1106 6.32681C15.4121 6.32681 14.8543 5.78774 14.8543 5.1229C14.8543 4.45806 15.4168 3.91899 16.1106 3.91899C16.8043 3.91899 17.3668 4.45806 17.3668 5.1229ZM20.934 6.34478C20.8543 4.73208 20.4699 3.30356 19.2371 2.12661C18.009 0.949658 16.5184 0.581299 14.8356 0.500439C13.1012 0.406104 7.90276 0.406104 6.16838 0.500439C4.49026 0.576807 2.99963 0.945166 1.76682 2.12212C0.534007 3.29907 0.15432 4.72759 0.0699448 6.34028C-0.0284927 8.00239 -0.0284927 12.9842 0.0699448 14.6463C0.149632 16.259 0.534007 17.6875 1.76682 18.8645C2.99963 20.0415 4.48557 20.4098 6.16838 20.4907C7.90276 20.585 13.1012 20.585 14.8356 20.4907C16.5184 20.4143 18.009 20.0459 19.2371 18.8645C20.4653 17.6875 20.8496 16.259 20.934 14.6463C21.0324 12.9842 21.0324 8.00689 20.934 6.34478ZM18.6934 16.4297C18.3278 17.3102 17.6199 17.9885 16.6965 18.3434C15.3137 18.869 12.0324 18.7477 10.5043 18.7477C8.9762 18.7477 5.69026 18.8645 4.31213 18.3434C3.39338 17.993 2.68557 17.3147 2.31526 16.4297C1.76682 15.1045 1.89338 11.96 1.89338 10.4956C1.89338 9.0311 1.77151 5.88208 2.31526 4.56138C2.68088 3.68091 3.38869 3.00259 4.31213 2.6477C5.69494 2.12212 8.9762 2.24341 10.5043 2.24341C12.0324 2.24341 15.3184 2.12661 16.6965 2.6477C17.6153 2.9981 18.3231 3.67642 18.6934 4.56138C19.2418 5.88657 19.1153 9.0311 19.1153 10.4956C19.1153 11.96 19.2418 15.109 18.6934 16.4297Z" fill="black"/>
</svg>
