<svg width="18" height="21" viewBox="0 0 18 21" fill="none" xmlns="http://www.w3.org/2000/svg">
<path d="M4.02911 20.1255H0.297321V6.68939H4.02911V20.1255ZM2.16121 4.85658C0.967902 4.85658 0 3.7515 0 2.41732C8.54116e-09 1.77647 0.227698 1.16186 0.633002 0.708708C1.03831 0.255555 1.58802 0.000976562 2.16121 0.000976562C2.73439 0.000976562 3.2841 0.255555 3.68941 0.708708C4.09471 1.16186 4.32241 1.77647 4.32241 2.41732C4.32241 3.7515 3.35411 4.85658 2.16121 4.85658ZM17.996 20.1255H14.2722V13.5849C14.2722 12.0261 14.2441 10.0271 12.332 10.0271C10.3918 10.0271 10.0945 11.7206 10.0945 13.4726V20.1255H6.3667V6.68939H9.9458V8.52221H9.99804C10.4963 7.46654 11.7133 6.35248 13.5289 6.35248C17.3057 6.35248 18 9.13314 18 12.7449V20.1255H17.996Z" fill="black"/>
</svg>
