<svg width="62" height="42" viewBox="0 0 62 42" fill="none" xmlns="http://www.w3.org/2000/svg">
<path d="M18.4 21C24.3321 21 29.1333 16.3031 29.1333 10.5C29.1333 4.69687 24.3321 0 18.4 0C12.4679 0 7.66667 4.69687 7.66667 10.5C7.66667 16.3031 12.4679 21 18.4 21ZM25.76 24H24.9646C22.9713 24.9375 20.7575 25.5 18.4 25.5C16.0425 25.5 13.8383 24.9375 11.8354 24H11.04C4.945 24 0 28.8375 0 34.8V37.5C0 39.9844 2.06042 42 4.6 42H32.2C34.7396 42 36.8 39.9844 36.8 37.5V34.8C36.8 28.8375 31.855 24 25.76 24ZM46 21C51.0792 21 55.2 16.9688 55.2 12C55.2 7.03125 51.0792 3 46 3C40.9208 3 36.8 7.03125 36.8 12C36.8 16.9688 40.9208 21 46 21ZM50.6 24H50.2358C48.9038 24.45 47.495 24.75 46 24.75C44.505 24.75 43.0962 24.45 41.7642 24H41.4C39.445 24 37.6433 24.5531 36.0621 25.4437C38.4004 27.9094 39.8667 31.1813 39.8667 34.8V38.4C39.8667 38.6063 39.8187 38.8031 39.8092 39H56.7333C59.2729 39 61.3333 36.9844 61.3333 34.5C61.3333 28.6969 56.5321 24 50.6 24Z" fill="black"/>
</svg>
