<svg width="59" height="48" viewBox="0 0 59 48" fill="none" xmlns="http://www.w3.org/2000/svg">
<path d="M23.4 31.5H23.3982C23.3982 29.9831 23.5207 30.6816 15.6241 14.4834C14.0107 11.175 9.39108 11.1684 7.77502 14.4834C-0.188297 30.8203 0.00182812 30.0309 0.00182812 31.5H0C0 35.6419 5.23849 39 11.7 39C18.1615 39 23.4 35.6419 23.4 31.5ZM11.7 16.5L18.2812 30H5.11875L11.7 16.5ZM58.4982 31.5C58.4982 29.9831 58.6207 30.6816 50.7241 14.4834C49.1107 11.175 44.4911 11.1684 42.875 14.4834C34.9117 30.8203 35.1018 30.0309 35.1018 31.5H35.1C35.1 35.6419 40.3385 39 46.8 39C53.2615 39 58.5 35.6419 58.5 31.5H58.4982ZM40.2188 30L46.8 16.5L53.3812 30H40.2188ZM48.2625 42H32.175V14.3672C34.324 13.4025 35.9373 11.4159 36.4153 9H48.2625C49.0705 9 49.725 8.32875 49.725 7.5V4.5C49.725 3.67125 49.0705 3 48.2625 3H35.0671C33.7326 1.18875 31.6348 0 29.25 0C26.8652 0 24.7674 1.18875 23.4329 3H10.2375C9.42947 3 8.775 3.67125 8.775 4.5V7.5C8.775 8.32875 9.42947 9 10.2375 9H22.0847C22.5627 11.415 24.1751 13.4025 26.325 14.3672V42H10.2375C9.42947 42 8.775 42.6712 8.775 43.5V46.5C8.775 47.3288 9.42947 48 10.2375 48H48.2625C49.0705 48 49.725 47.3288 49.725 46.5V43.5C49.725 42.6712 49.0705 42 48.2625 42Z" fill="black"/>
</svg>
