<svg width="61" height="48" viewBox="0 0 61 48" fill="none" xmlns="http://www.w3.org/2000/svg">
<path d="M41.18 15.5569L50.794 5.06906C52.6892 3.19875 51.3469 0 48.666 0H3.01657C0.33567 0 -1.00668 3.19875 0.88857 5.06906L18.2413 24V38.6175C18.2413 39.7978 18.8046 40.9088 19.7613 41.6175L27.3603 47.2425C29.342 48.7088 31.965 47.8959 32.9862 45.9703C29.5273 42.6919 27.3613 38.0953 27.3613 33C27.3613 24.5822 33.256 17.5153 41.18 15.5569ZM45.6013 18C37.2061 18 30.4013 24.7153 30.4013 33C30.4013 41.2847 37.2061 48 45.6013 48C53.9964 48 60.8013 41.2847 60.8013 33C60.8013 24.7153 53.9964 18 45.6013 18ZM47.1213 40.4888V42C47.1213 42.4144 46.7812 42.75 46.3613 42.75H44.8413C44.4214 42.75 44.0813 42.4144 44.0813 42V40.4728C43.0087 40.4184 41.9656 40.0491 41.1011 39.4087C40.7306 39.1341 40.7116 38.5866 41.047 38.2706L42.1632 37.2197C42.4264 36.9722 42.8178 36.9609 43.1256 37.1512C43.4932 37.3781 43.9103 37.5 44.3435 37.5H47.0139C47.6314 37.5 48.1349 36.945 48.1349 36.2634C48.1349 35.7056 47.792 35.2144 47.3018 35.07L43.0268 33.8044C41.2607 33.2812 40.0267 31.6087 40.0267 29.7366C40.0267 27.4378 41.8364 25.5703 44.0803 25.5112V24C44.0803 23.5856 44.4204 23.25 44.8403 23.25H46.3603C46.7802 23.25 47.1203 23.5856 47.1203 24V25.5272C48.1929 25.5816 49.236 25.95 50.1005 26.5913C50.471 26.8659 50.49 27.4134 50.1546 27.7294L49.0384 28.7803C48.7752 29.0278 48.3838 29.0391 48.076 28.8488C47.7084 28.6209 47.2913 28.5 46.8581 28.5H44.1877C43.5702 28.5 43.0667 29.055 43.0667 29.7366C43.0667 30.2944 43.4096 30.7856 43.8998 30.93L48.1748 32.1956C49.9409 32.7188 51.1749 34.3913 51.1749 36.2634C51.1749 38.5631 49.3661 40.4297 47.1213 40.4888Z" fill="black"/>
</svg>
