<svg width="59" height="37" viewBox="0 0 59 37" fill="none" xmlns="http://www.w3.org/2000/svg">
<path d="M39.9381 0H32.046C31.311 0 30.6036 0.28125 30.0615 0.7875L21.0302 9.225C21.021 9.23437 21.0118 9.25312 21.0026 9.2625C19.4775 10.725 19.5051 13.0594 20.8097 14.5125C21.9765 15.8156 24.4296 16.1625 25.9639 14.7656C25.9731 14.7562 25.9914 14.7562 26.0006 14.7469L33.3414 7.88438C33.9386 7.33125 34.8758 7.36875 35.4178 7.97813C35.9691 8.5875 35.9231 9.53437 35.3259 10.0969L32.928 12.3375L46.305 23.4187C46.5714 23.6437 46.8103 23.8875 47.0308 24.1406V6L42.0144 0.88125C41.4724 0.31875 40.719 0 39.9381 0ZM49.98 6.01875V27.0094C49.98 28.6687 51.2938 30.0094 52.92 30.0094H58.8V6.01875H49.98ZM54.39 27.0094C53.5815 27.0094 52.92 26.3344 52.92 25.5094C52.92 24.6844 53.5815 24.0094 54.39 24.0094C55.1985 24.0094 55.86 24.6844 55.86 25.5094C55.86 26.3344 55.1985 27.0094 54.39 27.0094ZM0 30H5.88C7.50619 30 8.82 28.6594 8.82 27V6.01875H0V30ZM4.41 24.0094C5.2185 24.0094 5.88 24.6844 5.88 25.5094C5.88 26.3344 5.2185 27.0094 4.41 27.0094C3.6015 27.0094 2.94 26.3344 2.94 25.5094C2.94 24.675 3.6015 24.0094 4.41 24.0094ZM44.4583 25.7531L30.7414 14.3906L27.9851 16.9687C25.2564 19.5094 21.0761 19.2656 18.6414 16.5562C16.17 13.8 16.3629 9.53437 19.0457 7.02187L26.5611 0H18.8619C18.081 0 17.3368 0.31875 16.7856 0.88125L11.76 6V26.9906H13.4413L21.756 34.6687C24.2734 36.7594 27.9759 36.3656 30.0247 33.7969L30.0431 33.7781L31.6877 35.2312C33.1485 36.45 35.3076 36.2156 36.4928 34.725L39.3776 31.1062L39.8738 31.5187C41.1324 32.5594 42.9883 32.3719 44.0081 31.0781L44.8809 29.9812C45.9099 28.6875 45.717 26.8031 44.4583 25.7531Z" fill="black"/>
</svg>
