<svg width="59" height="42" viewBox="0 0 59 42" fill="none" xmlns="http://www.w3.org/2000/svg">
<path d="M55.7333 0H2.93333C1.31358 0 0 1.34344 0 3V39C0 40.6566 1.31358 42 2.93333 42H55.7333C57.3531 42 58.6667 40.6566 58.6667 39V3C58.6667 1.34344 57.3531 0 55.7333 0ZM16.1333 27.7388V29.25C16.1333 29.6644 15.8052 30 15.4 30H13.9333C13.5282 30 13.2 29.6644 13.2 29.25V27.7228C12.1651 27.6684 11.1586 27.2991 10.3244 26.6587C9.96692 26.3841 9.94858 25.8366 10.2722 25.5206L11.3492 24.4697C11.6032 24.2222 11.9808 24.2109 12.2778 24.4012C12.6326 24.6281 13.035 24.75 13.453 24.75H16.0298C16.6256 24.75 17.1114 24.195 17.1114 23.5134C17.1114 22.9556 16.7805 22.4644 16.3075 22.32L12.1825 21.0544C10.4784 20.5312 9.28767 18.8587 9.28767 16.9866C9.28767 14.6878 11.0339 12.8203 13.1991 12.7612V11.25C13.1991 10.8356 13.5273 10.5 13.9324 10.5H15.3991C15.8043 10.5 16.1324 10.8356 16.1324 11.25V12.7772C17.1673 12.8316 18.1738 13.2 19.008 13.8412C19.3655 14.1159 19.3838 14.6634 19.0602 14.9794L17.9832 16.0303C17.7292 16.2778 17.3516 16.2891 17.0546 16.0988C16.6998 15.8709 16.2974 15.75 15.8794 15.75H13.3027C12.7068 15.75 12.221 16.305 12.221 16.9866C12.221 17.5444 12.5519 18.0356 13.0249 18.18L17.1499 19.4456C18.854 19.9688 20.0448 21.6413 20.0448 23.5134C20.0448 25.8131 18.2985 27.6797 16.1333 27.7388ZM38.1333 26.25C38.1333 26.6644 37.8052 27 37.4 27H27.1333C26.7282 27 26.4 26.6644 26.4 26.25V24.75C26.4 24.3356 26.7282 24 27.1333 24H37.4C37.8052 24 38.1333 24.3356 38.1333 24.75V26.25ZM52.8 26.25C52.8 26.6644 52.4718 27 52.0667 27H44.7333C44.3282 27 44 26.6644 44 26.25V24.75C44 24.3356 44.3282 24 44.7333 24H52.0667C52.4718 24 52.8 24.3356 52.8 24.75V26.25ZM52.8 17.25C52.8 17.6644 52.4718 18 52.0667 18H27.1333C26.7282 18 26.4 17.6644 26.4 17.25V15.75C26.4 15.3356 26.7282 15 27.1333 15H52.0667C52.4718 15 52.8 15.3356 52.8 15.75V17.25Z" fill="black"/>
</svg>
