<svg width="48" height="48" viewBox="0 0 48 48" fill="none" xmlns="http://www.w3.org/2000/svg">
<path d="M47.0269 8.63531L25.0537 0.191247C24.3747 -0.063749 23.6262 -0.063749 22.9472 0.191247L0.973125 8.63531C0.687282 8.74256 0.440969 8.93447 0.267084 9.18541C0.0931995 9.43636 2.29006e-05 9.73438 0 10.0397L0 13.5C0 14.3287 0.67125 15 1.5 15H46.5C47.3288 15 48 14.3287 48 13.5V10.0397C48 9.41437 47.6119 8.85468 47.0269 8.63531ZM6 18V33H4.5C3.67125 33 3 33.6712 3 34.5V39H45V34.5C45 33.6712 44.3288 33 43.5 33H42V18H36V33H27V18H21V33H12V18H6ZM46.5 42H1.5C0.67125 42 0 42.6712 0 43.5V46.5C0 47.3287 0.67125 48 1.5 48H46.5C47.3288 48 48 47.3287 48 46.5V43.5C48 42.6712 47.3288 42 46.5 42Z" fill="black"/>
</svg>
