<svg width="55" height="42" viewBox="0 0 55 42" fill="none" xmlns="http://www.w3.org/2000/svg">
<path d="M0 4.5V37.5C0 39.9844 2.03378 42 4.54054 42H9.08108V0H4.54054C2.03378 0 0 2.01562 0 4.5ZM12.1081 42H42.3784V0H12.1081V42ZM18.1622 18.75C18.1622 18.3375 18.5027 18 18.9189 18H24.2162V12.75C24.2162 12.3375 24.5568 12 24.973 12H29.5135C29.9297 12 30.2703 12.3375 30.2703 12.75V18H35.5676C35.9838 18 36.3243 18.3375 36.3243 18.75V23.25C36.3243 23.6625 35.9838 24 35.5676 24H30.2703V29.25C30.2703 29.6625 29.9297 30 29.5135 30H24.973C24.5568 30 24.2162 29.6625 24.2162 29.25V24H18.9189C18.5027 24 18.1622 23.6625 18.1622 23.25V18.75ZM49.9459 0H45.4054V42H49.9459C52.4527 42 54.4865 39.9844 54.4865 37.5V4.5C54.4865 2.01562 52.4527 0 49.9459 0Z" fill="black"/>
</svg>
