<svg width="60" height="48" viewBox="0 0 60 48" fill="none" xmlns="http://www.w3.org/2000/svg">
<path d="M48.0094 17.9065L47.2406 19.2471C46.9594 19.744 46.3594 19.9502 45.825 19.7533C44.7188 19.3408 43.7063 18.7502 42.8157 18.0096C42.3844 17.6533 42.2719 17.0252 42.5531 16.5377L43.3219 15.1971C42.675 14.4471 42.1688 13.5752 41.8313 12.6283H40.2844C39.7219 12.6283 39.2344 12.2252 39.1406 11.6627C38.9531 10.5377 38.9438 9.35646 39.1406 8.18458C39.2344 7.62208 39.7219 7.20958 40.2844 7.20958H41.8313C42.1688 6.26271 42.675 5.39083 43.3219 4.64083L42.5531 3.30021C42.2719 2.81271 42.375 2.18458 42.8157 1.82833C43.7063 1.08771 44.7281 0.497081 45.825 0.0845813C46.3594 -0.112294 46.9594 0.0939563 47.2406 0.590831L48.0094 1.93146C48.9938 1.75333 49.9969 1.75333 50.9813 1.93146L51.75 0.590831C52.0313 0.0939563 52.6313 -0.112294 53.1656 0.0845813C54.2719 0.497081 55.2844 1.08771 56.175 1.82833C56.6063 2.18458 56.7188 2.81271 56.4375 3.30021L55.6688 4.64083C56.3156 5.39083 56.8219 6.26271 57.1594 7.20958H58.7063C59.2688 7.20958 59.7563 7.61271 59.85 8.17521C60.0375 9.30021 60.0469 10.4815 59.85 11.6533C59.7563 12.2158 59.2688 12.6283 58.7063 12.6283H57.1594C56.8219 13.5752 56.3156 14.4471 55.6688 15.1971L56.4375 16.5377C56.7188 17.0252 56.6157 17.6533 56.175 18.0096C55.2844 18.7502 54.2625 19.3408 53.1656 19.7533C52.6313 19.9502 52.0313 19.744 51.75 19.2471L50.9813 17.9065C50.0063 18.0846 48.9938 18.0846 48.0094 17.9065ZM47.025 12.394C50.6344 15.169 54.75 11.0533 51.975 7.44396C48.3657 4.65958 44.25 8.78458 47.025 12.394ZM36.2156 26.8221L39.375 28.3971C40.3219 28.9408 40.7344 30.094 40.3594 31.1252C39.525 33.394 37.8844 35.4752 36.3656 37.294C35.6719 38.1283 34.4719 38.3346 33.525 37.7908L30.7969 36.2158C29.2969 37.5002 27.5532 38.5221 25.65 39.1877V42.3377C25.65 43.4252 24.8719 44.3627 23.8031 44.5502C21.4969 44.944 19.0781 44.9627 16.6875 44.5502C15.6094 44.3627 14.8125 43.4346 14.8125 42.3377V39.1877C12.9094 38.5127 11.1657 37.5002 9.66565 36.2158L6.93753 37.7815C6.00003 38.3252 4.79065 38.119 4.0969 37.2846C2.57815 35.4658 0.975026 33.3846 0.140651 31.1252C-0.234349 30.1033 0.178151 28.9502 1.12503 28.3971L4.2469 26.8221C3.88128 24.8627 3.88128 22.8471 4.2469 20.8783L1.12503 19.294C0.178151 18.7502 -0.243724 17.5971 0.140651 16.5752C0.975026 14.3065 2.57815 12.2252 4.0969 10.4065C4.79065 9.57208 5.99065 9.36583 6.93753 9.90958L9.66565 11.4846C11.1657 10.2002 12.9094 9.17833 14.8125 8.51271V5.35333C14.8125 4.27521 15.5813 3.33771 16.65 3.15021C18.9563 2.75646 21.3844 2.73771 23.775 3.14083C24.8531 3.32833 25.65 4.25646 25.65 5.35333V8.50333C27.5532 9.17833 29.2969 10.1908 30.7969 11.4752L33.525 9.90021C34.4625 9.35646 35.6719 9.56271 36.3656 10.3971C37.8844 12.2158 39.4781 14.2971 40.3125 16.5658C40.6875 17.5877 40.3219 18.7408 39.375 19.294L36.2156 20.869C36.5813 22.8377 36.5813 24.8533 36.2156 26.8221ZM25.1907 28.8002C30.7407 21.5815 22.5 13.3408 15.2813 18.8908C9.73127 26.1096 17.9719 34.3502 25.1907 28.8002ZM48.0094 45.9283L47.2406 47.269C46.9594 47.7658 46.3594 47.9721 45.825 47.7752C44.7188 47.3627 43.7063 46.7721 42.8157 46.0315C42.3844 45.6752 42.2719 45.0471 42.5531 44.5596L43.3219 43.219C42.675 42.469 42.1688 41.5971 41.8313 40.6502H40.2844C39.7219 40.6502 39.2344 40.2471 39.1406 39.6846C38.9531 38.5596 38.9438 37.3783 39.1406 36.2065C39.2344 35.644 39.7219 35.2315 40.2844 35.2315H41.8313C42.1688 34.2846 42.675 33.4127 43.3219 32.6627L42.5531 31.3221C42.2719 30.8346 42.375 30.2065 42.8157 29.8502C43.7063 29.1096 44.7281 28.519 45.825 28.1065C46.3594 27.9096 46.9594 28.1158 47.2406 28.6127L48.0094 29.9533C48.9938 29.7752 49.9969 29.7752 50.9813 29.9533L51.75 28.6127C52.0313 28.1158 52.6313 27.9096 53.1656 28.1065C54.2719 28.519 55.2844 29.1096 56.175 29.8502C56.6063 30.2065 56.7188 30.8346 56.4375 31.3221L55.6688 32.6627C56.3156 33.4127 56.8219 34.2846 57.1594 35.2315H58.7063C59.2688 35.2315 59.7563 35.6346 59.85 36.1971C60.0375 37.3221 60.0469 38.5033 59.85 39.6752C59.7563 40.2377 59.2688 40.6502 58.7063 40.6502H57.1594C56.8219 41.5971 56.3156 42.469 55.6688 43.219L56.4375 44.5596C56.7188 45.0471 56.6157 45.6752 56.175 46.0315C55.2844 46.7721 54.2625 47.3627 53.1656 47.7752C52.6313 47.9721 52.0313 47.7658 51.75 47.269L50.9813 45.9283C50.0063 46.1065 48.9938 46.1065 48.0094 45.9283ZM47.025 40.4065C50.6344 43.1815 54.75 39.0658 51.975 35.4565C48.3657 32.6815 44.25 36.7971 47.025 40.4065Z" fill="black"/>
</svg>
