<svg width="48" height="42" viewBox="0 0 48 42" fill="none" xmlns="http://www.w3.org/2000/svg">
<path d="M13.0884 1.32796C12.9839 1.22308 12.8597 1.13986 12.723 1.08308C12.5862 1.0263 12.4396 0.99707 12.2916 0.99707C12.1435 0.99707 11.9969 1.0263 11.8602 1.08308C11.7234 1.13986 11.5992 1.22308 11.4947 1.32796L5.5247 7.26327L3.39657 5.18952C3.29206 5.08464 3.16786 5.00142 3.03112 4.94464C2.89437 4.88786 2.74776 4.85863 2.5997 4.85863C2.45163 4.85863 2.30502 4.88786 2.16828 4.94464C2.03153 5.00142 1.90734 5.08464 1.80282 5.18952L0.330948 6.66327C0.226068 6.76779 0.142852 6.89198 0.0860707 7.02872C0.0292896 7.16547 6.10352e-05 7.31208 6.10352e-05 7.46014C6.10352e-05 7.60821 0.0292896 7.75482 0.0860707 7.89157C0.142852 8.02831 0.226068 8.1525 0.330948 8.25702L4.79251 12.7008C5.01521 12.9125 5.31072 13.0305 5.61798 13.0305C5.92524 13.0305 6.22075 12.9125 6.44345 12.7008L7.90501 11.2364L14.6738 4.46858C14.8847 4.25752 15.0038 3.97181 15.0054 3.67344C15.007 3.37507 14.8908 3.08812 14.6822 2.87483L13.0884 1.32796ZM13.0884 16.252C12.9839 16.1471 12.8597 16.0639 12.723 16.0071C12.5862 15.9504 12.4396 15.9211 12.2916 15.9211C12.1435 15.9211 11.9969 15.9504 11.8602 16.0071C11.7234 16.0639 11.5992 16.1471 11.4947 16.252L5.5247 22.2258L3.39657 20.1539C3.29206 20.049 3.16786 19.9658 3.03112 19.909C2.89437 19.8522 2.74776 19.823 2.5997 19.823C2.45163 19.823 2.30502 19.8522 2.16828 19.909C2.03153 19.9658 1.90734 20.049 1.80282 20.1539L0.330948 21.6248C0.226068 21.7293 0.142852 21.8535 0.0860707 21.9903C0.0292896 22.127 6.10352e-05 22.2736 6.10352e-05 22.4217C6.10352e-05 22.5698 0.0292896 22.7164 0.0860707 22.8531C0.142852 22.9899 0.226068 23.1141 0.330948 23.2186L4.78126 27.6717C5.0038 27.8833 5.29916 28.0013 5.60626 28.0013C5.91336 28.0013 6.20872 27.8833 6.43126 27.6717L7.90314 26.2008L14.6719 19.4301C14.882 19.2206 15.0007 18.9364 15.0023 18.6397C15.0039 18.3429 14.8882 18.0576 14.6803 17.8458L13.0884 16.252ZM6.00001 32.4998C3.51657 32.4998 1.4447 34.5155 1.4447 36.9998C1.4447 39.4842 3.51845 41.4998 6.00001 41.4998C7.19348 41.4998 8.33808 41.0257 9.18199 40.1818C10.0259 39.3379 10.5 38.1933 10.5 36.9998C10.5 35.8064 10.0259 34.6618 9.18199 33.8178C8.33808 32.9739 7.19348 32.4998 6.00001 32.4998ZM46.5 33.9998H19.5C19.1022 33.9998 18.7207 34.1579 18.4394 34.4392C18.158 34.7205 18 35.102 18 35.4998V38.4998C18 38.8977 18.158 39.2792 18.4394 39.5605C18.7207 39.8418 19.1022 39.9998 19.5 39.9998H46.5C46.8978 39.9998 47.2794 39.8418 47.5607 39.5605C47.842 39.2792 48 38.8977 48 38.4998V35.4998C48 35.102 47.842 34.7205 47.5607 34.4392C47.2794 34.1579 46.8978 33.9998 46.5 33.9998ZM46.5 3.99983H19.5C19.1022 3.99983 18.7207 4.15787 18.4394 4.43917C18.158 4.72048 18 5.10201 18 5.49983V8.49983C18 8.89766 18.158 9.27919 18.4394 9.56049C18.7207 9.8418 19.1022 9.99983 19.5 9.99983H46.5C46.8978 9.99983 47.2794 9.8418 47.5607 9.56049C47.842 9.27919 48 8.89766 48 8.49983V5.49983C48 5.10201 47.842 4.72048 47.5607 4.43917C47.2794 4.15787 46.8978 3.99983 46.5 3.99983ZM46.5 18.9998H19.5C19.1022 18.9998 18.7207 19.1579 18.4394 19.4392C18.158 19.7205 18 20.102 18 20.4998V23.4998C18 23.8977 18.158 24.2792 18.4394 24.5605C18.7207 24.8418 19.1022 24.9998 19.5 24.9998H46.5C46.8978 24.9998 47.2794 24.8418 47.5607 24.5605C47.842 24.2792 48 23.8977 48 23.4998V20.4998C48 20.102 47.842 19.7205 47.5607 19.4392C47.2794 19.1579 46.8978 18.9998 46.5 18.9998Z" fill="black"/>
</svg>
