<svg width="59" height="48" viewBox="0 0 59 48" fill="none" xmlns="http://www.w3.org/2000/svg">
<path d="M56.6323 18H44.129V2.25C44.129 1.00688 43.1416 0 41.9226 0H28.6839C27.4648 0 26.4774 1.00688 26.4774 2.25V9H20.5935V1.5C20.5935 0.67125 19.9353 0 19.1226 0H17.6516C16.8389 0 16.1806 0.67125 16.1806 1.5V9H10.2968V1.5C10.2968 0.67125 9.63852 0 8.82581 0H7.35484C6.54213 0 5.88387 0.67125 5.88387 1.5V9H2.20645C0.987387 9 0 10.0069 0 11.25V45C0 46.6566 1.31744 48 2.94194 48H55.8968C57.5213 48 58.8387 46.6566 58.8387 45V20.25C58.8387 19.0069 57.8504 18 56.6323 18ZM11.7677 37.875C11.7677 38.4966 11.274 39 10.6645 39H6.9871C6.37756 39 5.88387 38.4966 5.88387 37.875V34.125C5.88387 33.5034 6.37756 33 6.9871 33H10.6645C11.274 33 11.7677 33.5034 11.7677 34.125V37.875ZM11.7677 28.875C11.7677 29.4966 11.274 30 10.6645 30H6.9871C6.37756 30 5.88387 29.4966 5.88387 28.875V25.125C5.88387 24.5034 6.37756 24 6.9871 24H10.6645C11.274 24 11.7677 24.5034 11.7677 25.125V28.875ZM11.7677 19.875C11.7677 20.4966 11.274 21 10.6645 21H6.9871C6.37756 21 5.88387 20.4966 5.88387 19.875V16.125C5.88387 15.5034 6.37756 15 6.9871 15H10.6645C11.274 15 11.7677 15.5034 11.7677 16.125V19.875ZM23.5355 37.875C23.5355 38.4966 23.0418 39 22.4323 39H18.7548C18.1453 39 17.6516 38.4966 17.6516 37.875V34.125C17.6516 33.5034 18.1453 33 18.7548 33H22.4323C23.0418 33 23.5355 33.5034 23.5355 34.125V37.875ZM23.5355 28.875C23.5355 29.4966 23.0418 30 22.4323 30H18.7548C18.1453 30 17.6516 29.4966 17.6516 28.875V25.125C17.6516 24.5034 18.1453 24 18.7548 24H22.4323C23.0418 24 23.5355 24.5034 23.5355 25.125V28.875ZM23.5355 19.875C23.5355 20.4966 23.0418 21 22.4323 21H18.7548C18.1453 21 17.6516 20.4966 17.6516 19.875V16.125C17.6516 15.5034 18.1453 15 18.7548 15H22.4323C23.0418 15 23.5355 15.5034 23.5355 16.125V19.875ZM38.2452 28.875C38.2452 29.4966 37.7515 30 37.1419 30H33.4645C32.855 30 32.3613 29.4966 32.3613 28.875V25.125C32.3613 24.5034 32.855 24 33.4645 24H37.1419C37.7515 24 38.2452 24.5034 38.2452 25.125V28.875ZM38.2452 19.875C38.2452 20.4966 37.7515 21 37.1419 21H33.4645C32.855 21 32.3613 20.4966 32.3613 19.875V16.125C32.3613 15.5034 32.855 15 33.4645 15H37.1419C37.7515 15 38.2452 15.5034 38.2452 16.125V19.875ZM38.2452 10.875C38.2452 11.4966 37.7515 12 37.1419 12H33.4645C32.855 12 32.3613 11.4966 32.3613 10.875V7.125C32.3613 6.50344 32.855 6 33.4645 6H37.1419C37.7515 6 38.2452 6.50344 38.2452 7.125V10.875ZM52.9548 37.875C52.9548 38.4966 52.4611 39 51.8516 39H48.1742C47.5647 39 47.071 38.4966 47.071 37.875V34.125C47.071 33.5034 47.5647 33 48.1742 33H51.8516C52.4611 33 52.9548 33.5034 52.9548 34.125V37.875ZM52.9548 28.875C52.9548 29.4966 52.4611 30 51.8516 30H48.1742C47.5647 30 47.071 29.4966 47.071 28.875V25.125C47.071 24.5034 47.5647 24 48.1742 24H51.8516C52.4611 24 52.9548 24.5034 52.9548 25.125V28.875Z" fill="black"/>
</svg>
