<svg width="48" height="36" viewBox="0 0 48 36" fill="none" xmlns="http://www.w3.org/2000/svg">
<path d="M46.5 30H6V1.5C6 0.67125 5.32875 0 4.5 0H1.5C0.67125 0 0 0.67125 0 1.5V33C0 34.6566 1.34344 36 3 36H46.5C47.3288 36 48 35.3288 48 34.5V31.5C48 30.6712 47.3288 30 46.5 30ZM43.5 3H32.4319C30.4275 3 29.4234 5.42344 30.8409 6.84094L33.8784 9.87844L27 16.7578L20.1216 9.87938C18.9497 8.7075 17.0503 8.7075 15.8794 9.87938L9.43969 16.3191C8.85375 16.905 8.85375 17.8547 9.43969 18.4406L11.5603 20.5613C12.1462 21.1472 13.0959 21.1472 13.6819 20.5613L18 16.2422L24.8784 23.1206C26.0503 24.2925 27.9497 24.2925 29.1206 23.1206L38.1206 14.1206L41.1581 17.1581C42.5756 18.5756 44.9991 17.5716 44.9991 15.5672V4.5C45 3.67125 44.3288 3 43.5 3Z" fill="black"/>
</svg>
