<svg width="24" height="20" viewBox="0 0 24 20" fill="none" xmlns="http://www.w3.org/2000/svg">
<path d="M19.0781 7.32543C19.4344 6.20043 18.45 5.13168 17.325 5.37074C16.2938 5.59574 15.975 4.05355 16.9922 3.83324C19.3406 3.3223 21.3188 5.5723 20.5781 7.80824C20.2594 8.80199 18.7594 8.31449 19.0781 7.32543ZM10.0688 19.9395C5.08594 19.9395 0 17.5301 0 13.5504C0 11.4739 1.3125 9.07855 3.57656 6.81449C8.25 2.14105 13.1016 2.08481 11.7141 6.5473C11.5266 7.16137 12.2906 6.81449 12.2906 6.82855C16.0172 5.25355 18.8766 6.04105 17.6344 9.23793C17.4609 9.67855 17.6859 9.74887 18.0234 9.85199C24.3844 11.8348 19.6547 19.9395 10.0688 19.9395ZM16.8047 13.0817C16.5516 10.4707 13.125 8.67543 9.14531 9.06449C5.17031 9.46762 2.17031 11.8911 2.42344 14.502C2.67656 17.1129 6.10313 18.9082 10.0828 18.5192C14.0578 18.1161 17.0578 15.6926 16.8047 13.0817ZM16.3078 0.645743C15.0938 0.908243 15.5203 2.69418 16.6969 2.44105C20.0859 1.72855 23.0156 4.91605 21.9328 8.25355C21.5859 9.38793 23.2969 9.98793 23.6859 8.81605C25.1812 4.13793 21.1031 -0.366757 16.3078 0.645743ZM12.6281 15.2239C11.8266 17.0426 9.49687 18.0364 7.51406 17.3942C5.60156 16.7801 4.79531 14.8911 5.625 13.1895C6.45469 11.5301 8.58281 10.5926 10.4719 11.0754C12.4406 11.5817 13.4297 13.4286 12.6281 15.2239ZM8.58281 13.8176C7.97813 13.5645 7.17656 13.8317 6.80156 14.4223C6.4125 15.027 6.6 15.7348 7.20469 16.0161C7.81875 16.2973 8.64844 16.0301 9.0375 15.4114C9.4125 14.7973 9.21094 14.0848 8.58281 13.8176ZM10.1109 13.1895C9.87187 13.1098 9.57656 13.2176 9.44062 13.4426C9.30469 13.6817 9.375 13.9395 9.61406 14.0473C9.85313 14.1411 10.1625 14.0332 10.2984 13.7942C10.4297 13.5504 10.35 13.2832 10.1109 13.1895Z" fill="black"/>
</svg>
