<svg width="27" height="22" viewBox="0 0 27 22" fill="none" xmlns="http://www.w3.org/2000/svg">
<path d="M18.0563 6.85625C18.3563 6.85625 18.6469 6.87031 18.9375 6.90781C18.1594 3.23281 14.2172 0.5 9.73594 0.5C4.71094 0.5 0.609375 3.9125 0.609375 8.25312C0.609375 10.7562 1.98281 12.8234 4.26094 14.4219L3.35625 17.1687L6.54375 15.5703C7.6875 15.7953 8.59688 16.025 9.74063 16.025C10.0313 16.025 10.3078 16.0109 10.5984 15.9875C10.4109 15.3828 10.3078 14.7406 10.3078 14.075C10.3031 10.0953 13.725 6.85625 18.0563 6.85625ZM13.1578 4.37656C13.8375 4.37656 14.2922 4.83125 14.2922 5.52031C14.2922 6.2 13.8375 6.65469 13.1578 6.65469C12.4641 6.65469 11.7844 6.2 11.7844 5.52031C11.7891 4.83125 12.4688 4.37656 13.1578 4.37656ZM6.76406 6.65469C6.08438 6.65469 5.39063 6.2 5.39063 5.52031C5.39063 4.82656 6.08438 4.37656 6.76406 4.37656C7.45781 4.37656 7.90781 4.83125 7.90781 5.52031C7.90781 6.20469 7.45781 6.65469 6.76406 6.65469ZM26.3906 13.9719C26.3906 10.3203 22.7391 7.34844 18.6375 7.34844C14.2922 7.34844 10.8844 10.3203 10.8844 13.9719C10.8844 17.6234 14.2969 20.5953 18.6375 20.5953C19.5422 20.5953 20.4609 20.3562 21.3844 20.1312L23.8875 21.5047L23.1938 19.2266C25.0313 17.8484 26.3906 16.025 26.3906 13.9719ZM16.1203 12.8234C15.6656 12.8234 15.2156 12.3687 15.2156 11.9047C15.2156 11.45 15.6703 11 16.1203 11C16.8141 11 17.2641 11.4547 17.2641 11.9047C17.2641 12.3734 16.8094 12.8234 16.1203 12.8234ZM21.1406 12.8234C20.6859 12.8234 20.2359 12.3687 20.2359 11.9047C20.2359 11.45 20.6906 11 21.1406 11C21.8203 11 22.2844 11.4547 22.2844 11.9047C22.2891 12.3734 21.8203 12.8234 21.1406 12.8234Z" fill="black"/>
</svg>
